<?xml version="1.0" encoding="UTF-8"?>
<svg width="128" height="128" viewBox="0 0 128 128" xmlns="http://www.w3.org/2000/svg">
  <!-- Background -->
  <rect width="128" height="128" fill="#478cbf" rx="16"/>

  <!-- AI Brain/Circuit (top left) -->
  <circle cx="35" cy="40" r="8" fill="#fff" opacity="0.9"/>
  <circle cx="50" cy="35" r="6" fill="#fff" opacity="0.8"/>
  <circle cx="48" cy="48" r="5" fill="#fff" opacity="0.7"/>
  <line x1="35" y1="40" x2="45" y2="36" stroke="#fff" stroke-width="2" opacity="0.6"/>
  <line x1="43" y1="43" x2="48" y2="48" stroke="#fff" stroke-width="2" opacity="0.6"/>

  <!-- Arrow (pipeline flow) -->
  <path d="M 60 40 L 75 40 L 75 35 L 85 45 L 75 55 L 75 50 L 60 50 Z" fill="#ffd500" opacity="0.9"/>

  <!-- Pixel Sprite Grid (bottom right) -->
  <rect x="75" y="70" width="12" height="12" fill="#fff" opacity="0.9"/>
  <rect x="89" y="70" width="12" height="12" fill="#e8f4f8" opacity="0.9"/>
  <rect x="103" y="70" width="12" height="12" fill="#fff" opacity="0.9"/>

  <rect x="75" y="84" width="12" height="12" fill="#e8f4f8" opacity="0.9"/>
  <rect x="89" y="84" width="12" height="12" fill="#fff" opacity="0.9"/>
  <rect x="103" y="84" width="12" height="12" fill="#e8f4f8" opacity="0.9"/>

  <rect x="75" y="98" width="12" height="12" fill="#fff" opacity="0.9"/>
  <rect x="89" y="98" width="12" height="12" fill="#e8f4f8" opacity="0.9"/>
  <rect x="103" y="98" width="12" height="12" fill="#fff" opacity="0.9"/>

  <!-- Plugin name -->
  <text x="64" y="120" text-anchor="middle" font-family="Arial, sans-serif" font-size="12" font-weight="bold" fill="#fff" opacity="0.9">SPRITES</text>
</svg>
